<?xml version="1.0" encoding="UTF-8"?>
<svg version="1.1" xmlns="http://www.w3.org/2000/svg" width="256" height="256">
<path d="M0 0 C0.76304443 0.63760254 0.76304443 0.63760254 1.54150391 1.28808594 C26.47888986 22.29714199 41.50197883 53.43297464 44.60131836 85.73364258 C47.1691534 119.74961746 37.09877136 152.92879089 15 179 C14.57493164 179.50869629 14.14986328 180.01739258 13.71191406 180.54150391 C-7.49320026 205.71160762 -38.85365592 220.66086633 -71.44604492 223.60131836 C-106.56821273 226.11418485 -139.49538058 215.05790046 -166.23828125 192.2578125 C-191.53261523 170.14712061 -206.39264506 138.42443491 -208.78125 105.0390625 C-210.67910693 69.04955489 -198.29538282 36.14829366 -174.3125 9.4375 C-152.33191435 -14.26235569 -120.59605478 -28.14587932 -88.46972656 -29.9140625 C-55.96403565 -31.04514229 -24.88570892 -21.09390436 0 0 Z M-75.3125 22.80859375 C-80.91148491 30.07949777 -82.80946604 36.88901248 -83 46 C-73.81100552 45.96163259 -68.45084995 43.14253175 -61.80078125 36.953125 C-55.68872709 30.58122381 -51.80630111 23.8550263 -51.75 14.875 C-51.8325 13.59625 -51.915 12.3175 -52 11 C-60.94075944 10.34619675 -69.50910674 16.43695156 -75.3125 22.80859375 Z M-135.08203125 60.8671875 C-145.90689044 72.90460729 -147.9533302 87.25449044 -147.1640625 102.78662109 C-145.57275575 124.25505418 -135.13932285 148.72813489 -118.72265625 162.9765625 C-112.70143581 167.57141788 -108.65052274 168.92673858 -101 168 C-98.72867802 167.22666895 -96.47879 166.38850412 -94.25 165.5 C-82.55851783 161.07140827 -73.61971619 162.3891532 -62.19140625 166.87109375 C-56.43839967 168.90612301 -51.65183006 168.94114212 -46 166.625 C-32.9151736 159.12579119 -23.0127616 141.13450356 -19 127 C-20.08667969 126.29037109 -20.08667969 126.29037109 -21.1953125 125.56640625 C-27.71650604 121.10590987 -32.32523942 117.02454234 -36 110 C-36.33773437 109.39929688 -36.67546875 108.79859375 -37.0234375 108.1796875 C-40.82651486 100.11995475 -40.13944728 89.50938479 -37.5625 81.1875 C-35.00997632 75.04117041 -30.0768075 68.03840375 -24 65 C-26.01425665 58.94684727 -29.67940991 56.27301606 -35 53 C-45.68585968 47.91007798 -55.80421539 47.41723932 -66.93505859 51.15478516 C-68.48289714 51.70506417 -70.02420689 52.27418597 -71.55712891 52.86474609 C-79.28050142 55.7780845 -85.00714478 55.77005575 -92.8125 52.5625 C-108.85617266 46.52898208 -122.43379245 49.20354214 -135.08203125 60.8671875 Z " fill="#000000" transform="translate(210,31)"/>
</svg>
