<svg width="328" height="328" viewBox="0 0 328 328" fill="none"
    xmlns="http://www.w3.org/2000/svg">
    <rect x="20" width="288" height="288" rx="40" fill="white"/>
    <rect x="20.5" y="0.5" width="287" height="287" rx="39.5" stroke="#C4C5D7" stroke-opacity="0.1"/>
    <g filter="url(#filter0_dd_42_59)">
        <rect x="20" width="288" height="288" rx="40" fill="white" fill-opacity="0.01" shape-rendering="crispEdges"/>
    </g>
    <path d="M132.43979.288C128.879.28825.71578.01723.18375.474C120.65172.93219.38569.84419.38566.212H112.461V116.788C112.46114.48713.23212.56614.77411.024C116.31609.48218.23708.71220.53808.712H186.692V126.788H198.231L215.53850.058V166.212H207.461C207.46169.844 206.18872.932 203.64175.474C201.09478.01798.00179.28894.36279.288C190.72379.28887.63878.01785.10675.474C182.57472.93281.30869.84481.30866.212H145.538C145.53869.86544.26572.95841.71875.49C139.17178.02236.07879.28832.43979.288V179.288M132.46174.288C134.71174.28836.6273.50538.18771.938C139.75570.3740.53868.46240.53866.212C140.53863.96239.75562.05338.18760.486C136.6258.91834.71158.13532.46158.135C130.21158.13528.30358.91826.73660.486C125.16862.05324.38563.96224.38566.212C124.38568.46225.16870.3726.73671.938C128.30373.50530.21174.28832.46174.288V174.288M117.46161.212H120.692C121.40459.00622.85257.10925.03855.519C127.22453.92929.69953.13532.46153.135C135.09653.13537.53853.91339.78855.471C142.03857.02943.51958.94244.23161.212H181.692V113.712H120.538C119.76913.71219.06414.03218.42314.673C117.78215.31417.46116.01917.46116.788V161.212V161.212M194.38574.288C196.63574.28898.54373.505 200.1171.938C201.67870.37 202.46168.462 202.46166.212C202.46163.962 201.67862.053 200.1160.486C198.54358.91896.63558.13594.38558.135C192.13558.13590.22658.91888.65960.486C187.09162.05386.30863.96286.30866.212C186.30868.46287.09170.3788.65971.938C190.22673.50592.13574.28894.38574.288V174.288M186.69251.212H210.25L195.53831.788H186.692V151.212V151.212M149.57737.462V137.462V137.462V137.462V137.462V137.462V137.462V137.462V137.462V137.462V137.462V137.462V137.462" fill="#264DD9"/>
    <defs>
        <filter id="filter0_dd_42_59" x="0" y="0" width="328" height="328" filterUnits="userSpaceOnUse" color-interpolation-filters="sRGB">
            <feFlood flood-opacity="0" result="BackgroundImageFix"/>
            <feColorMatrix in="SourceAlpha" type="matrix" values="0 0 0 0 0 0 0 0 0 0 0 0 0 0 0 0 0 027 0" result="hardAlpha"/>
            <feMorphology radius="6" operator="erode" in="SourceAlpha" result="effect1_dropShadow_42_59"/>
            <feOffset dy="8"/>
            <feGaussianBlur stdDeviation="5"/>
            <feComposite in2="hardAlpha" operator="out"/>
            <feColorMatrix type="matrix" values="0 0 0 0 0 0 0 0 0 0 0 0 0 0 0 0 0 0 0.1 0"/>
            <feBlend mode="normal" in2="BackgroundImageFix" result="effect1_dropShadow_42_59"/>
            <feColorMatrix in="SourceAlpha" type="matrix" values="0 0 0 0 0 0 0 0 0 0 0 0 0 0 0 0 0 027 0" result="hardAlpha"/>
            <feMorphology radius="5" operator="erode" in="SourceAlpha" result="effect2_dropShadow_42_59"/>
            <feOffset dy="20"/>
            <feGaussianBlur stdDeviation="12.5"/>
            <feComposite in2="hardAlpha" operator="out"/>
            <feColorMatrix type="matrix" values="0 0 0 0 0 0 0 0 0 0 0 0 0 0 0 0 0 0 0.1 0"/>
            <feBlend mode="normal" in2="effect1_dropShadow_42_59" result="effect2_dropShadow_42_59"/>
            <feBlend mode="normal" in="SourceGraphic" in2="effect2_dropShadow_42_59" result="shape"/>
        </filter>
    </defs>
</svg>
