<svg width="186" height="186" viewBox="0 0 186 186" fill="none" xmlns="http://www.w3.org/2000/svg">
<g opacity="0.4" filter="url(#filter0_f_8_238)">
<rect x="40" y="40" width="105.6" height="105.6" rx="48" fill="#4A6CF7" fill-opacity="0.1"/>
</g>
<g filter="url(#filter1_d_8_238)">
<rect x="44.8" y="44.8" width="96" height="96" rx="32" fill="white" shape-rendering="crispEdges"/>
<rect x="45.3" y="45.3" width="95" height="95" rx="31.5" stroke="#E2E8F0" shape-rendering="crispEdges"/>
<path d="M80.8 112.8C79.7 112.8 78.7583 112.408 77.975 111.625C77.1917 110.842 76.8 109.9 76.8 108.8V84.8C76.8 83.7 77.1917 82.7583 77.975 81.975C78.7583 81.1917 79.7 80.8 80.8 80.8H84.8V80.8C84.8 78.6 85.5833 76.7167 87.15 75.15C88.7167 73.5833 90.6 72.8 92.8 72.8C95 72.8 96.8833 73.5833 98.45 75.15C100.017 76.7167 100.8 78.6 100.8 80.8V80.8H104.8C105.9 80.8 106.842 81.1917 107.625 81.975C108.408 82.7583 108.8 83.7 108.8 84.8V108.8C108.8 109.9 108.408 110.842 107.625 111.625C106.842 112.408 105.9 112.8 104.8 112.8H80.8V112.8M88.8 80.8H96.8V80.8C96.8 79.7 96.4083 78.7583 95.625 77.975C94.8417 77.1917 93.9 76.8 92.8 76.8C91.7 76.8 90.7583 77.1917 89.975 77.975C89.1917 78.7583 88.8 79.7 88.8 80.8V80.8V80.8M98.8 90.8C99.3667 90.8 99.8417 90.6083 100.225 90.225C100.608 89.8417 100.8 89.3667 100.8 88.8V84.8H96.8V88.8C96.8 89.3667 96.9917 89.8417 97.375 90.225C97.7583 90.6083 98.2333 90.8 98.8 90.8V90.8M86.8 90.8C87.3667 90.8 87.8417 90.6083 88.225 90.225C88.6083 89.8417 88.8 89.3667 88.8 88.8V84.8H84.8V88.8C84.8 89.3667 84.9917 89.8417 85.375 90.225C85.7583 90.6083 86.2333 90.8 86.8 90.8V90.8" fill="#4A6CF7"/>
</g>
<defs>
<filter id="filter0_f_8_238" x="0" y="0" width="185.6" height="185.6" filterUnits="userSpaceOnUse" color-interpolation-filters="sRGB">
<feFlood flood-opacity="0" result="BackgroundImageFix"/>
<feBlend mode="normal" in="SourceGraphic" in2="BackgroundImageFix" result="shape"/>
<feGaussianBlur stdDeviation="20" result="effect1_foregroundBlur_8_238"/>
</filter>
<filter id="filter1_d_8_238" x="20.8" y="32.8" width="144" height="144" filterUnits="userSpaceOnUse" color-interpolation-filters="sRGB">
<feFlood flood-opacity="0" result="BackgroundImageFix"/>
<feColorMatrix in="SourceAlpha" type="matrix" values="0 0 0 0 0 0 0 0 0 0 0 0 0 0 0 0 0 0 127 0" result="hardAlpha"/>
<feOffset dy="12"/>
<feGaussianBlur stdDeviation="12"/>
<feComposite in2="hardAlpha" operator="out"/>
<feColorMatrix type="matrix" values="0 0 0 0 0.290196 0 0 0 0 0.423529 0 0 0 0 0.968627 0 0 0 0.12 0"/>
<feBlend mode="normal" in2="BackgroundImageFix" result="effect1_dropShadow_8_238"/>
<feBlend mode="normal" in="SourceGraphic" in2="effect1_dropShadow_8_238" result="shape"/>
</filter>
</defs>
</svg>
