<?xml version="1.0" encoding="UTF-8"?>
<svg version="1.1"
    xmlns="http://www.w3.org/2000/svg" width="512" height="512">
    <path d="M0 0 C7.12320895 7.38935082 9.296638345.11236397 9.31108314 25.21947622 C9.11451713 35.76692947 6.96360617 46.17128287 5.19213867 56.54101562 C4.78219463 58.99472257 4.37330315 61.44860557 3.96537781 63.90264893 C2.975125 69.84222086.97358106 75.77978408 0.9664559 81.71650988 C-0.20764115 88.64004971 -1.36925558 95.56566675 -2.5306021802.49135464 C-4.6032892714.84884696 -6.6881485327.20425478 -8.7795410239.55859375 C-10.8064676651.53213369 -12.8232008463.50733546 -14.829345775.484375 C-17.0187059388.55516193 -19.21365698 201.62498659 -21.4183504 214.69319677 C-21.65347751 216.08694255 -21.88860205 217.48068877 -22.12372398 218.87443542 C-22.23939448 219.56005319 -22.35506497 220.24567096 -22.47424063 220.95206502 C-23.28739314 225.77399863 -24.09669015 230.59657018 -24.90458107 235.41938782 C-25.9917755 241.90847989 -27.08858519 248.39589796 -28.19181633 254.88228607 C-28.59516487 257.26219793 -28.99550557 259.64262181 -29.39261627 262.02358246 C-29.93513385 265.27323704 -30.48854078 268.52085427 -31.04475403 271.76818848 C-31.19943533 272.71030386 -31.35411664 273.65241925 -31.51348525 274.62308359 C-32.88778121 282.52483531 -34.67120705 288.59737188 -41 294 C-45.5197767 296.69102009 -49.87071599 296.75362793 -55 296 C-60.32039454 293.83607483 -63.38454727 291.11900647 -66 286 C-66.6811156 283.12116299 -67.23627598 280.33303851 -67.70385742 277.42041016 C-67.85155232 276.55401728 -67.99924723 275.6876244 -68.15141773 274.79497719 C-68.6460635 271.87792266 -69.12564526 268.95858894 -69.60546875 266.0390625 C-69.96083498 263.92544388 -70.31714417 261.81198362 -70.67431641 259.69866943 C-71.6523458 253.89550715 -72.6173088 248.09023927 -73.57976913 242.28447723 C-74.60106837 236.13468046 -75.63264278 229.98660798 -76.66333008 223.83837891 C-77.99258052 215.90513426 -79.32040547 207.97166092 -80.64311218 200.037323 C-83.8350004680.89665346 -87.0731861461.7641655 -90.333341342.63501179 C-92.1401597732.03139735 -93.9382944621.42630857 -95.7357530610.82110405 C-97.0937539102.81041898 -98.45546391 94.80039827 -99.82577515 86.79180908 C-101.00231328 79.91528753 -102.1706812 73.03743574 -103.32908666 66.15783548 C-103.92475291 62.6218299 -104.52413888 59.0865642 -105.13378906 55.55294037 C-105.80124791 51.68370356 -106.45053752 47.81153536 -107.09838867 43.93896484 C-107.29299777 42.82786158 -107.48760687 41.71675831 -107.68811321 40.57198524 C-109.97698648 26.65858747 -110.359095514.77150744 -102.375 2.75 C-94.05608319 -7.50930931 -78.34090167 -11.93637852 -65.67578125 -13.71875 C-43.69348624 -15.40071094 -17.71746906 -15.17617552 0 0 Z " fill="#101010" transform="translate(306,83)"/>
    <path d="M0 0 C5.19339884 4.77261173 8.23833454 9.74498147 8.964843756.8515625 C9.06764036 23.1335778 6.90412464 28.1198442 3 33 C-2.07510544 38.0346341 -7.34080754 39.7602207 -14.0625 41.9375 C-43.04671317 51.88426232 -70.23965609 67.03001208 -95 85 C-95.65129883 85.47260254 -96.30259766 85.94520508 -96.97363281 86.43212891 C-103.1963382 90.97552302 -109.33798863 95.60273427 -115.2812500.5078125 C-115.9876562501.09062988 -116.694062501.67344727 -117.42187502.27392578 C-118.761774503.38683572 -120.0956204204.50709452 -121.42187505.63623047 C-129.0178312711.97350806 -134.984176814.66755161 -145.007812514.3203125 C-151.297998213.64695058 -154.9976072810.73967559 -15906 C-163.1993053 99.99513021 -163.97506937 94.2070345 -163 87 C-160.13494155 74.6155538 -143.55904641 65.03693646 -134 58 C-133.31099609 57.49178711 -132.62199219 56.98357422 -131.91210938 56.45996094 C-117.07078935 45.54876942 -101.96839663 35.19579406 -86 26 C-84.83549316 25.32348389 -84.83549316 25.32348389 -83.64746094 24.63330078 C-65.118388033.94233707 -45.62105348 4.85915661 -25.25 -1.75 C-24.51885986 -1.99024902 -23.78771973 -2.23049805 -23.03442383 -2.47802734 C-14.74170865 -4.99356534 -7.45755419 -4.72817207 0 0 Z " fill="#BBBBBB" transform="translate(184,142)"/>
    <path d="M0 0 C1.04414063 0.35682861 2.08828125 0.71365723 3.1640625.08129883 C47.635002836.65874664 87.19267394 42.5303194823.1875 72.5625 C123.72028564 73.0028759824.25307129 73.4432519524.80200195 73.89697266 C130.24962931 78.4992936334.3787108 83.0017445135.43359375 90.23046875 C135.61354365 97.3967086934.3016448102.8203544430.062508.6875 C124.0622451914.3989022818.3097375915.068452410.3320312514.9453125 C102.2272951914.30622937 97.3120577309.3648242 91.3781738304.22998047 C61.10331108 78.04378036 24.83734443 56.19363263 -12.94091797 42.984375 C-22.45891461 39.64442605 -29.52617209 36.70834584 -35.046875 27.921875 C-37.27141121 22.341021 -37.052900254.77519596 -35.02734375 9.16796875 C-31.87559592 3.86776259 -27.69274789 -0.05466944 -22.0625 -2.625 C-13.96412812 -4.40664181 -7.66348546 -2.65163143 0 0 Z " fill="#BBBBBB" transform="translate(355.9375,141.3125)"/>
    <path d="M0 0 C0.7513623 0.25555664.50272461 0.51111328 2.27685547 0.77441406 C26.08885343 9.29460756 47.53686877 22.01280231 67.41894531 37.44335938 C69.02733668 38.68850829 70.64966512 39.91560179 72.2734375 41.140625 C77.86414056 45.43612119 81.90952086 48.97856259 84.1875 55.8125 C84.85526471 63.3200832 85.32634757 70.05234321 80.61328125 76.265625 C76.41142765 80.82434836 72.3018045 83.51237303 66.06640625 84.11328125 C64.42478516 84.11908203 64.42478516 84.11908203 62.75 84.125 C61.65816406 84.14175781 60.56632812 84.15851563 59.44140625 84.17578125 C52.71028885 83.42428795 48.2533841 79.43673522 43.25 75.25 C25.73369511 60.99399773 6.46127096 49.95185399 -14.88525391 42.44873047 C-21.25049135 40.18945252 -27.06693019 37.9052483 -30.625 31.8125 C-31.02332031 31.1525 -31.42164063 30.4925 -31.83203125 29.8125 C-34.31027878 24.75726999 -34.643172939.12908384 -33.281253.69140625 C-30.67462122 6.1973485 -26.82792594 2.32021297 -19.8125 -1.1875 C-13.40353909 -3.6683881 -6.26264137 -2.15365523 0 0 Z " fill="#BBBBBB" transform="translate(331.8125,236.1875)"/>
    <path d="M0 0 C5.07797445 3.23143829 7.59295183 7.36512556 9.752.9375 C10.72683336 20.99637521 9.49052541 26.71629629 5.4375 33.6875 C0.0292484 38.81840536 -7.1392607 41.07692732 -13.98486328 43.74389648 C-35.41391704 52.10808767 -54.40605313 63.58292919 -72.30078125 78.0390625 C-78.80189737 82.76201517 -85.18491508 82.73798623 -93 82 C-99.72024779 80.2818784 -103.54359429 75.82446222 -107 70 C-109.04065442 63.87803674 -108.87552194 56.58048572 -106.8125 50.5 C-89.24637331 26.27085974 -52.85049224 9.90968279 -25.4375 0 C-24.20604248 -0.45475708 -24.20604248 -0.45475708 -22.94970703 -0.91870117 C-14.76551446 -3.76403257 -7.86643739 -3.92476016 0 0 Z " fill="#BBBBBB" transform="translate(204,238)"/>
    <path d="M0 0 C7.80405131 5.548888192.823585581.867130855.4921875 21.0859375 C16.76299632 31.760731554.86794944 40.83795411 8.53125 49.671875 C2.64569692 56.62268655 -4.48503011 60.09545796 -13.45703125 61.0625 C-22.97044783 61.46020058 -30.93254605 59.75722842 -38.578125 53.87890625 C-44.49152623 48.34736673 -48.86468547 41.48605906 -49.43359375 33.26953125 C-49.74481797 21.81424695 -48.34921263.12005002 -40.18359375 4.46484375 C-29.05040158 -5.35598785 -12.95965668 -7.60976282 0 0 Z " fill="#101010" transform="translate(273.1953125,398.2890625)"/>
    <path d="M0 0 C6.31713214 3.7570936 9.87053855 8.665657081.980468755.65625 C13.21576156 21.863090111.84320678 27.72370574 8.80078125 33.2109375 C4.46456809 39.14802005 -2.55027792 42.19634018 -8.8828125 45.55859375 C-13.69170185 48.25609115 -17.8444322 51.67442538 -22.1171875 55.13671875 C-23.00019531 55.85085938 -23.88320312 56.565 -24.79296875 57.30078125 C-25.6025 57.9659375 -26.41203125 58.63109375 -27.24609375 59.31640625 C-33.55694447 64.08174251 -39.80788247 63.89098659 -47.54296875 63.05078125 C-53.25271799 60.98818966 -57.14044284 56.95442153 -60.54296875 52.05078125 C-63.5150476 45.5405133 -63.31641243 39.59509191 -60.98046875 32.98828125 C-58.70694443 27.8375727 -55.85221863 24.61026709 -51.54296875 21.05078125 C-50.61355469 20.27992188 -49.684140629.5090625 -48.72656258.71484375 C-42.974804274.07464099 -36.99692015 9.9280567 -30.66796875 6.11328125 C-30.06210938 5.74799316 -29.45625 5.38270508 -28.83203125 5.00634766 C-19.85247469 -0.26372652 -10.32581288 -3.85433568 0 0 Z " fill="#BBBBBB" transform="translate(216.54296875,320.94921875)"/>
    <path d="M0 0 C8.61435742 4.3368266.55279782 9.63576726 24.084228525.64282227 C24.647226566.09061035 25.210224616.53839844 25.79028326.99975586 C33.3677202 23.14959148 38.73069697 28.78645436 40.44360352 38.72875977 C40.83605521 44.24488641 38.98807344 49.06270535 36.08422852 53.64282227 C32.09514742 57.98360889 27.86670798 61.31728587 21.91235352 62.01391602 C12.14659455 62.19515827 7.80214667 60.77378682 0.60375977 54.47094727 C-0.33081055 53.66141602 -1.26538086 52.85188477 -2.22827148 52.01782227 C-2.71577881 51.59154541 -3.20328613 51.16526855 -3.70556641 50.72607422 C-9.07795378 46.1985012 -15.1187582 42.9063578 -21.32910156 39.66186523 C-27.62469576 36.25107445 -31.48793307 32.66876667 -33.91186523 25.83422852 C-35.187367588.23765259 -34.940266383.27295104 -31.10327148 6.39282227 C-23.13179009 -3.62846863 -11.41577898 -5.24493712 0 0 Z " fill="#BABABA" transform="translate(317.915771484375,322.357177734375)"/>
</svg>
