<svg width="24" height="24" viewBox="0 0 24 24" fill="none"
    xmlns="http://www.w3.org/2000/svg">
    <path d="M11.9999 6.441V9.771M20.58995.17C21.31996.39 20.73997.979.38998.42C14.6086 20.01 9.44121 20.01 4.659938.42C3.219937.94 2.669936.48 3.459935.17L4.729933.05C5.079932.47 5.359931.44 5.359930.77V8.67C5.35862 7.79456 5.52991 6.92744 5.86402 6.11826C6.19813 5.30907 6.68849 4.5737 7.30706 3.9542C7.92563 3.33471 8.66027 2.84324 9.46895 2.50792C10.2776 2.17261.1445 22.0199 2C15.6799 28.6799 58.6799 8.66V10.76C18.67990.948.69991.148.72991.35" stroke="#272727" stroke-opacity="0.5" stroke-width="1.5" stroke-miterlimit="10" stroke-linecap="round"/>
    <path d="M15.32998.82C15.3299 20.653.8299 22.151.9999 22.15C11.0899 22.150.2499 21.77 9.64992 21.17C9.04992 20.57 8.669929.73 8.669928.82" stroke="#272727" stroke-opacity="0.5" stroke-width="1.5" stroke-miterlimit="10"/>
</svg>
