<svg width="268" height="332" viewBox="0 0 268 332" fill="none"
    xmlns="http://www.w3.org/2000/svg">
    <rect x="38" y="13" width="192" height="256" rx="12" fill="white"/>
    <rect x="38.5" y="13.5" width="191" height="255" rx="11.5" stroke="#C4C5D7" stroke-opacity="0.1"/>
    <g filter="url(#filter0_d_15_757)">
        <rect x="38" y="13" width="192" height="256" rx="12" fill="white" fill-opacity="0.01" shape-rendering="crispEdges"/>
    </g>
    <rect x="63" y="38" width="142" height="8" rx="4" fill="#E1E2E6"/>
    <rect x="63" y="62" width="94.66" height="8" rx="4" fill="#E1E2E6"/>
    <rect x="63" y="102" width="48" height="6" rx="3" fill="#E7E8EC"/>
    <rect x="173" y="102" width="32" height="6" rx="3" fill="#E7E8EC"/>
    <rect x="63" y="124" width="64" height="6" rx="3" fill="#E7E8EC"/>
    <rect x="181" y="124" width="24" height="6" rx="3" fill="#E7E8EC"/>
    <rect x="106" y="164" width="56" height="56" rx="28" fill="#264DD9" fill-opacity="0.1"/>
    <path d="M131.998.9L142.47588.325L140.37586.225L131.994.7L127.62590.425L125.52592.525L131.998.9V198.9M134 207C131.925 20729.975 206.60628.15 205.819C126.325 205.03124.737 203.96223.387 202.612C122.037 201.26220.96999.67520.18197.85C119.39496.0251994.0751992C11989.92519.39487.97520.18186.15C120.96984.32522.03782.73723.38781.387C124.73780.03726.32578.96928.1578.181C129.97577.39431.925773477C136.0757738.02577.39439.8578.181C141.67578.96943.26280.03744.61281.387C145.96282.73747.03184.32547.81986.15C148.60687.9754989.9254992C14994.07548.60696.02547.81997.85C147.03199.67545.962 201.26244.612 202.612C143.262 203.96241.675 205.03139.85 205.819C138.025 206.60636.075 20734 207V207" fill="#264DD9"/>
    <rect x="86" y="236" width="96" height="8" rx="4" fill="#264DD9" fill-opacity="0.2"/>
    <defs>
        <filter id="filter0_d_15_757" x="0" y="0" width="268" height="332" filterUnits="userSpaceOnUse" color-interpolation-filters="sRGB">
            <feFlood flood-opacity="0" result="BackgroundImageFix"/>
            <feColorMatrix in="SourceAlpha" type="matrix" values="0 0 0 0 0 0 0 0 0 0 0 0 0 0 0 0 0 027 0" result="hardAlpha"/>
            <feMorphology radius="12" operator="erode" in="SourceAlpha" result="effect1_dropShadow_15_757"/>
            <feOffset dy="25"/>
            <feGaussianBlur stdDeviation="25"/>
            <feComposite in2="hardAlpha" operator="out"/>
            <feColorMatrix type="matrix" values="0 0 0 0 0.0980392 0 0 0 0 0.109804 0 0 0 0 0.121569 0 0 0 0.05 0"/>
            <feBlend mode="normal" in2="BackgroundImageFix" result="effect1_dropShadow_15_757"/>
            <feBlend mode="normal" in="SourceGraphic" in2="effect1_dropShadow_15_757" result="shape"/>
        </filter>
    </defs>
</svg>
