<svg width="328" height="328" viewBox="0 0 328 328" fill="none"
    xmlns="http://www.w3.org/2000/svg">
    <rect x="20" width="288" height="288" rx="40" fill="white"/>
    <rect x="20.5" y="0.5" width="287" height="287" rx="39.5" stroke="#C4C5D7" stroke-opacity="0.1"/>
    <g filter="url(#filter0_dd_41_19)">
        <rect x="20" width="288" height="288" rx="40" fill="white" fill-opacity="0.01" shape-rendering="crispEdges"/>
    </g>
    <rect opacity="0.1" x="21.5" y="1.5" width="285" height="285" rx="39.5" stroke="#C4C5D7"/>
    <g opacity="0.9">
        <path d="M137.07789C134.7768932.85488.22931.31386.688C129.77185.1462983.2242980.923V127.077C12924.77629.77122.85431.31321.312C132.85419.77134.7761937.07719H146.5V116.5C146.511.64148.20207.5151.60604.106C155.0100.70259.141 9964 99C168.859 9972.9900.70276.39404.106C179.79807.5181.511.64181.516.5V119H190.923C193.2241995.14619.77196.68821.312C198.22922.8549924.7769927.077V180.923C19983.22498.22985.14696.68886.688C195.14688.22993.2248990.92389H137.077V189M137.07784H190.923C191.6928492.39783.67993.03883.038C193.6882.3979481.6929480.923V127.077C19426.30893.6825.60393.03824.962C192.39724.32191.6922490.92324H181.5V136.5C181.537.21281.26137.80680.78438.284C180.30638.76179.712397939C178.2883977.69438.76177.21638.284C176.73937.80676.537.21276.536.5V124H151.5V136.5C151.537.21251.26137.80650.78438.284C150.30638.76149.712394939C148.2883947.69438.76147.21638.284C146.73937.80646.537.21246.536.5V124H137.077C136.3082435.60324.32134.96224.962C134.32125.6033426.3083427.077V180.923C13481.69234.32182.39734.96283.038C135.60383.67936.3088437.07784V184M151.519H176.5V116.5C176.512.98175.29610.01872.88907.611C170.48205.20467.519046404C160.4810457.51805.20455.11107.611C152.70410.01851.512.98151.516.5V119V119M13484V184C134843483.6793483.038C13482.3973481.6923480.923V127.077C13426.3083425.6033424.962C13424.32134243424V124C134243424.3213424.962C13425.6033426.3083427.077V180.923C13481.6923482.3973483.038C13483.67934843484V184" fill="#264DD9"/>
    </g>
    <defs>
        <filter id="filter0_dd_41_19" x="0" y="0" width="328" height="328" filterUnits="userSpaceOnUse" color-interpolation-filters="sRGB">
            <feFlood flood-opacity="0" result="BackgroundImageFix"/>
            <feColorMatrix in="SourceAlpha" type="matrix" values="0 0 0 0 0 0 0 0 0 0 0 0 0 0 0 0 0 027 0" result="hardAlpha"/>
            <feMorphology radius="6" operator="erode" in="SourceAlpha" result="effect1_dropShadow_41_19"/>
            <feOffset dy="8"/>
            <feGaussianBlur stdDeviation="5"/>
            <feComposite in2="hardAlpha" operator="out"/>
            <feColorMatrix type="matrix" values="0 0 0 0 0 0 0 0 0 0 0 0 0 0 0 0 0 0 0.1 0"/>
            <feBlend mode="normal" in2="BackgroundImageFix" result="effect1_dropShadow_41_19"/>
            <feColorMatrix in="SourceAlpha" type="matrix" values="0 0 0 0 0 0 0 0 0 0 0 0 0 0 0 0 0 027 0" result="hardAlpha"/>
            <feMorphology radius="5" operator="erode" in="SourceAlpha" result="effect2_dropShadow_41_19"/>
            <feOffset dy="20"/>
            <feGaussianBlur stdDeviation="12.5"/>
            <feComposite in2="hardAlpha" operator="out"/>
            <feColorMatrix type="matrix" values="0 0 0 0 0 0 0 0 0 0 0 0 0 0 0 0 0 0 0.1 0"/>
            <feBlend mode="normal" in2="effect1_dropShadow_41_19" result="effect2_dropShadow_41_19"/>
            <feBlend mode="normal" in="SourceGraphic" in2="effect2_dropShadow_41_19" result="shape"/>
        </filter>
    </defs>
</svg>
