<?xml version="1.0" encoding="UTF-8"?>
<svg version="1.1" xmlns="http://www.w3.org/2000/svg" width="512" height="512">
<path d="M0 0 C7.16209401 5.51575615 13.37056481 12.12403963 19.625 18.625 C20.0375 17.9959375 20.45 17.366875 20.875 16.71875 C28.80916005 4.95919135 37.03156021 -2.41905309 50.60546875 -7.05078125 C53.63885365 -7.53776567 56.61727055 -7.58625893 59.6875 -7.625 C60.91597656 -7.65078125 62.14445313 -7.6765625 63.41015625 -7.703125 C66.625 -7.375 66.625 -7.375 68.49609375 -6.109375 C69.625 -4.375 69.625 -4.375 69.91015625 -2.36328125 C70.49692686 -0.03025201 70.49692686 -0.03025201 73.49609375 1.14453125 C74.67300781 1.57121094 75.84992188 1.99789063 77.0625 2.4375 C78.23683594 2.87707031 79.41117188 3.31664062 80.62109375 3.76953125 C83.51782595 4.95987502 83.51782595 4.95987502 85.625 3.625 C92.21510524 2.65920871 92.21510524 2.65920871 95.68359375 5.03515625 C97.77144251 6.98462907 99.70684276 9.0085442 101.625 11.125 C102.30433594 11.84042969 102.98367187 12.55585938 103.68359375 13.29296875 C105.35031071 15.05358526 106.99549874 16.83000251 108.625 18.625 C110.95536774 15.75418528 113.15879887 12.85949551 115.25 9.8125 C122.17455762 0.60875382 131.4728423 -4.89217346 142.625 -7.375 C158.46220332 -8.77115423 171.03826423 -6.48025009 183.625 3.625 C189.02381264 8.47363709 194.10805117 13.66062288 199.23046875 18.796875 C200.72362202 20.28545815 202.21714372 21.77367183 203.71101379 23.26153564 C206.82825351 26.36987984 209.93980753 29.4837812 213.04760742 32.6015625 C217.0097258 36.57517117 220.9874831 40.53269597 224.9699049 44.48594284 C228.05439854 47.55199862 231.12942898 50.62741244 234.20186806 53.70554352 C235.66386366 55.16769138 237.12892124 56.62678484 238.59721947 58.08260345 C248.00898353 67.4255804 256.43303156 76.27480345 261.4375 88.8125 C261.81519531 89.73417969 262.19289063 90.65585938 262.58203125 91.60546875 C265.23617622 99.28956636 265.92715087 106.00054056 265.94384766 114.08984375 C265.95389328 115.21267258 265.9639389 116.3355014 265.97428894 117.49235535 C266.00503759 121.18239863 266.02213315 124.87236963 266.0390625 128.5625 C266.05778081 131.12940082 266.07735472 133.69629553 266.0977478 136.26318359 C266.14377337 142.31547978 266.18120658 148.36777253 266.21442068 154.42015076 C266.25274211 161.31506271 266.30212574 168.20988184 266.35240483 175.10471535 C266.45551491 189.27807344 266.54484284 203.45149443 266.625 217.625 C267.93911865 218.30357056 267.93911865 218.30357056 269.27978516 218.99584961 C270.43784668 219.60436768 271.5959082 220.21288574 272.7890625 220.83984375 C273.9332666 221.43659912 275.0774707 222.03335449 276.25634766 222.64819336 C287.62840166 229.3215896 294.21102336 240.24715092 298.0625 252.625 C300.70929564 266.35892847 297.85547327 279.80406277 290.625 291.625 C283.15853292 302.1658947 272.61952808 308.19521197 260.21484375 311.2109375 C250.70110313 312.73198804 241.68381028 311.73087781 232.625 308.625 C232.24915771 309.37837646 232.24915771 309.37837646 231.86572266 310.14697266 C215.58069263 342.54716618 193.67448226 366.22045103 158.953125 378.62890625 C155.625 379.625 155.625 379.625 151.625 379.625 C151.625 393.485 151.625 407.345 151.625 421.625 C154.925 422.285 158.225 422.945 161.625 423.625 C184.47557097 430.98492275 204.48083766 444.06476689 221.625 460.625 C222.55054688 461.48738281 223.47609375 462.34976562 224.4296875 463.23828125 C233.20121239 471.6246542 246.43058937 484.81622161 248.125 497.3125 C247.625 500.625 247.625 500.625 246.24378967 502.80028534 C242.13497256 505.66321813 238.11812334 505.17638167 233.22436523 505.13293457 C232.15387908 505.13917453 231.08339293 505.1454145 229.9804678 505.15184355 C226.38128797 505.16784145 222.78277901 505.1551422 219.18359375 505.14257812 C216.60824182 505.14799619 214.03289298 505.15511707 211.45755005 505.16381836 C205.18147713 505.18161876 198.90559539 505.17775693 192.62951493 505.1661678 C187.52951375 505.15713968 182.4295662 505.15590676 177.32955933 505.16026306 C176.24138764 505.16118246 176.24138764 505.16118246 175.13123268 505.16212043 C173.65756772 505.16339931 172.18390278 505.16469617 170.71023786 505.1660108 C156.88683722 505.17742104 143.06354264 505.16429596 129.24015939 505.14280933 C117.37522241 505.12493792 105.51044197 505.1280419 93.64550781 505.14648438 C79.87208128 505.16788328 66.09874773 505.17632237 52.32530689 505.16403532 C50.85701817 505.1627611 49.38872943 505.16150362 47.92044067 505.16026306 C47.19798658 505.15964596 46.47553249 505.15902886 45.73118585 505.15839306 C40.63643155 505.1549372 35.54173615 505.16077354 30.44699097 505.17018127 C23.59169564 505.18256152 16.73670144 505.17376608 9.88143539 505.15060425 C7.36107756 505.14530188 4.84069489 505.14685685 2.32034683 505.15565491 C-1.11156405 505.16653316 -4.54251599 505.15293914 -7.97436523 505.13293457 C-8.97941384 505.14185746 -9.98446245 505.15078034 -11.01996708 505.15997362 C-17.71598177 505.08390078 -17.71598177 505.08390078 -20.99403381 502.8012619 C-23.06266927 499.54130335 -22.88751044 497.41838437 -22.375 493.625 C-21.15270891 491.13996374 -19.99920151 489.11546674 -18.4375 486.875 C-17.82080444 485.96113525 -17.82080444 485.96113525 -17.19165039 485.02880859 C3.81345764 454.37010132 34.71959457 431.61406792 70.625 421.625 C71.615 421.625 72.605 421.625 73.625 421.625 C73.625 407.765 73.625 393.905 73.625 379.625 C71.315 379.295 69.005 378.965 66.625 378.625 C38.05238211 370.34842987 14.54658127 348.93569214 0.359375 323.34179688 C-2.28553122 318.47023014 -4.84837041 313.55879678 -7.375 308.625 C-8.00664062 308.8415625 -8.63828125 309.058125 -9.2890625 309.28125 C-22.94079798 313.53020514 -35.67589505 312.31813744 -48.5625 306.375 C-60.16578372 300.18780599 -67.45186343 290.52049329 -71.6484375 278.16796875 C-75.58237116 264.39920093 -73.59082235 250.835593 -66.6875 238.375 C-60.48497682 228.84693446 -52.94396945 222.82950423 -42.375 218.625 C-41.715 218.625 -41.055 218.625 -40.375 218.625 C-40.43641877 204.91559242 -40.51367354 191.20637196 -40.61071491 177.49716759 C-40.65529486 171.13028625 -40.69457799 164.76346709 -40.72143555 158.39648438 C-40.74759226 152.24311132 -40.78808128 146.08997912 -40.83818626 139.93675613 C-40.85477167 137.59826293 -40.86633745 135.25972814 -40.87261391 132.92118454 C-40.94638151 107.94509295 -44.38548284 88.157589 -62.125 69.5 C-66.6025665 64.68642065 -69.15211216 59.77997095 -71.375 53.625 C-71.61992188 52.97144531 -71.86484375 52.31789062 -72.1171875 51.64453125 C-75.84485102 39.6700505 -73.37414883 26.85379615 -68.01953125 15.8359375 C-62.03501588 5.21462604 -53.39266529 -1.97925893 -41.9375 -6.25 C-27.73359502 -9.99731774 -12.16847352 -8.21812849 0 0 Z " fill="#010000" transform="translate(143.375,7.375)"/>
<path d="M0 0 C5.70709064 0.46588495 9.15939723 1.93757784 14 5 C13.87818359 5.8353125 13.87818359 5.8353125 13.75390625 6.6875 C13.46740901 10.14885441 13.29642374 12.92396651 15.24658203 15.90649414 C15.80716309 16.50582764 16.36774414 17.10516113 16.9453125 17.72265625 C17.58122314 18.40859863 18.21713379 19.09454102 18.87231445 19.80126953 C19.57445068 20.52685059 20.27658691 21.25243164 21 22 C21.73629639 22.76296387 22.47259277 23.52592773 23.23120117 24.31201172 C25.57309697 26.70640975 27.93842286 29.07503204 30.3125 31.4375 C31.52776367 32.65856445 31.52776367 32.65856445 32.76757812 33.90429688 C33.54166016 34.67708984 34.31574219 35.44988281 35.11328125 36.24609375 C35.81235596 36.94404053 36.51143066 37.6419873 37.23168945 38.36108398 C39.80067925 40.74209027 40.85157186 40.98650653 44.4375 41.3125 C47.98535819 41.39360797 47.98535819 41.39360797 49.671875 39.26953125 C51.09839698 36.83185692 51.47242641 35.15906915 51.8125 32.375 C53.47380324 23.27802499 58.22289774 16.69726099 65.72265625 11.40625 C73.71847306 6.46886741 81.55089354 5.80939573 90.79296875 7.515625 C96.42078102 9.17229701 100.23151075 11.83736953 104.49291992 15.83203125 C105.2655922 16.55412277 105.2655922 16.55412277 106.05387402 17.290802 C112.34846885 23.2072581 118.48794883 29.28435476 124.61328125 35.375 C125.23342794 35.99107117 125.85357464 36.60714233 126.49251366 37.24188232 C129.76491328 40.49364378 133.03418625 43.74851216 136.30102539 47.00585938 C139.64546856 50.33918602 143.00145174 53.66064435 146.36004353 56.97970581 C148.97234093 59.56572536 151.57558614 62.1607192 154.17656517 64.75811768 C155.40939703 65.9861255 156.64556156 67.2107982 157.88530922 68.43182373 C168.81532612 79.206734 180.54086312 92.14742993 181.12025452 108.36627197 C181.12314206 109.72106812 181.12052092 111.0758829 181.11352539 112.43066406 C181.11367142 113.17251953 181.11381744 113.914375 181.1139679 114.67871094 C181.11327269 117.12437897 181.10549866 119.56997031 181.09765625 122.015625 C181.09579068 123.71384642 181.09436743 125.41206838 181.09336853 127.11029053 C181.08955432 131.57533255 181.07973339 136.04034194 181.06866455 140.50537109 C181.05842687 145.06347207 181.05386586 149.62157833 181.04882812 154.1796875 C181.03811014 163.11980599 181.02104687 172.05990028 181 181 C179.82423149 179.80849083 179.82423149 179.80849083 178.62471008 178.59291077 C176.54496139 176.53835899 174.58833429 174.93037613 172.23046875 173.24609375 C170.21249013 171.53193211 169.15787014 170.54158775 168.41259766 167.98486328 C168.22794242 165.65469012 168.23650539 163.3985083 168.3125 161.0625 C168.08935337 142.6830103 161.74699864 126.48888745 149 113 C133.93698986 98.47916393 116.32019191 93.87831354 96.06665039 93.80712891 C94.77459686 93.79895142 93.48254333 93.79077393 92.15133667 93.78234863 C87.88346401 93.75627594 83.6155823 93.74083178 79.34765625 93.7265625 C77.86987237 93.721196 76.39208853 93.71581848 74.91430473 93.71043015 C68.75908917 93.68881948 62.60387607 93.67008959 56.44863224 93.65880775 C47.67376101 93.6426103 38.89933533 93.60951461 30.12463194 93.55240691 C23.92981243 93.5134867 17.73511094 93.49414896 11.54017252 93.48888719 C7.85296927 93.4852626 4.16624276 93.47355571 0.47917366 93.44078445 C-24.06693411 93.2332661 -44.21917819 95.5673841 -63 113 C-73.69773244 123.95384758 -81.9848529 140.22330225 -82.07421875 155.68359375 C-82.1745076 168.77827125 -82.1745076 168.77827125 -84.953125 172.890625 C-87.21088881 174.85706445 -89.45767533 176.43000301 -92 178 C-93.01636426 178.98336346 -94.01936037 179.9810074 -95 181 C-95.00364563 180.06864731 -95.00729126 179.13729462 -95.01104736 178.17771912 C-95.04822339 169.33778642 -95.10623855 160.49819482 -95.18390274 151.65852261 C-95.22316765 147.1155155 -95.25545778 142.57269614 -95.27099609 138.02954102 C-95.28630257 133.63316868 -95.3209902 129.23731327 -95.36830902 124.84117317 C-95.38298026 123.17617385 -95.39103268 121.51110066 -95.39188385 119.84603691 C-95.40608034 105.98121577 -97.14659692 93.14586454 -103.75 80.6875 C-104.09216553 80.02363281 -104.43433105 79.35976562 -104.78686523 78.67578125 C-108.31568014 72.04544682 -112.76910281 66.42172411 -117.91796875 60.96875 C-125.21138337 53.13105071 -127.66859873 45.60000238 -127.53662109 34.90234375 C-127.11699623 26.18737613 -123.99005777 20.60540167 -117.8125 14.625 C-111.16463697 9.1878405 -104.22638601 6.24417725 -95.56640625 6.69140625 C-82.58550196 8.25227602 -75.14488161 14.57555789 -66.23828125 23.8125 C-65.7525766 24.31604004 -65.26687195 24.81958008 -64.76644897 25.33837891 C-62.76807841 27.41940513 -60.77529866 29.50473871 -58.80541992 31.61279297 C-57.34052154 33.1745579 -55.85428685 34.71319699 -54.36328125 36.25 C-53.50001221 37.16265625 -52.63674316 38.0753125 -51.74731445 39.015625 C-48.26481692 41.53102 -46.20626675 41.47740893 -42 41 C-39.64161975 39.48319943 -39.13779509 38.53759493 -38.4453125 35.8359375 C-38.33960938 35.02382813 -38.23390625 34.21171875 -38.125 33.375 C-36.56710136 24.67356615 -32.07827732 17.34862309 -25 12 C-19.05642212 8.52390748 -13.72091826 6.7208385 -6.87890625 6.3046875 C-3.96720641 5.83251996 -2.68501568 4.31689656 -1 2 C-0.67 1.34 -0.34 0.68 0 0 Z " fill="#355D7C" transform="translate(213,8)"/>
<path d="M0 0 C12.30093271 9.18380262 21.89239878 22.19743316 24.625 37.5 C26.47092494 54.98594355 23.3915507 70.59963987 13 85 C3.89753411 95.84168705 -6.88545124 101.69698471 -20.1640625 105.859375 C-23.27492605 106.80034537 -23.27492605 106.80034537 -25 110 C-24.91832511 113.57176115 -24.91832511 113.57176115 -24 117 C-20.51098039 119.32601307 -18.71933191 119.16881095 -14.65625 118.6015625 C-1.08388164 115.52782025 10.22920155 107.5724066 20 98 C20.62777344 97.40832031 21.25554687 96.81664062 21.90234375 96.20703125 C32.29830041 85.52819142 38.24479589 68.88514575 39.5 54.25 C40 51 40 51 41.6875 49 C44.70345223 47.69580444 46.74230247 47.59278781 50 48 C52.09765625 49.06640625 52.09765625 49.06640625 54 51 C54.66114341 53.50522953 55.09951588 55.76531236 55.4375 58.3125 C58.53776819 77.26144207 66.98863401 94.52782281 82.64697266 106.23095703 C89.5992907 111.17081308 96.80055435 115.49847421 105 118 C105.97066406 118.29648437 106.94132813 118.59296875 107.94140625 118.8984375 C120.43241969 122.23959202 136.5121029 123.06423953 148.64453125 117.8671875 C151 117 151 117 154 118 C149.66918195 129.07770341 145.32748653 139.51352191 138 149 C137.58878906 149.53318848 137.17757812 150.06637695 136.75390625 150.61572266 C123.81011308 167.18435405 107.6467916 177.85367557 88 185 C87.18917969 185.31839844 86.37835938 185.63679687 85.54296875 185.96484375 C73.78250778 190.3504702 60.9728157 190.34892161 48.58740234 190.31567383 C46.13463866 190.31251242 43.68308477 190.33608133 41.23046875 190.36132812 C14.65515322 190.46952322 -8.7828152 182.37968518 -29 165 C-29.67289063 164.47148437 -30.34578125 163.94296875 -31.0390625 163.3984375 C-45.40963483 151.77602242 -54.52898336 134.30735072 -60 117 C-59.26910156 117.14953125 -58.53820312 117.2990625 -57.78515625 117.453125 C-50.54902308 119.12027199 -50.54902308 119.12027199 -43.4375 118 C-41.22244325 114.91818191 -41.47425108 112.68024245 -42 109 C-45.14409053 105.9175583 -48.88162507 104.86115781 -53 103.5 C-61.56329371 100.66975886 -61.56329371 100.66975886 -64 98 C-64.63940274 94.89627839 -64.58736943 91.81072185 -64.58105469 88.65087891 C-64.59448914 87.6928688 -64.60792358 86.7348587 -64.62176514 85.74781799 C-64.65983003 82.57385642 -64.66757836 79.40073825 -64.671875 76.2265625 C-64.68472388 74.0232203 -64.69818006 71.81988157 -64.71221924 69.61654663 C-64.73619101 64.99460946 -64.74357829 60.37297153 -64.74121094 55.75097656 C-64.74080442 49.8262643 -64.79540528 43.90346945 -64.86429977 37.97921181 C-64.90876357 33.42724792 -64.9168884 28.87574816 -64.91477203 24.32358932 C-64.91949537 22.1394426 -64.93720661 19.95528417 -64.9681015 17.77135086 C-65.00728161 14.71550367 -64.9958132 11.66382375 -64.97167969 8.60791016 C-64.99415771 7.70487656 -65.01663574 6.80184296 -65.03979492 5.8714447 C-64.98895488 3.3396198 -64.86489908 1.38209797 -64 -1 C-46.89561747 -17.3436042 -17.80719121 -10.65952513 0 0 Z " fill="#966A53" transform="translate(209,186)"/>
<path d="M0 0 C1.26308487 -0.00832352 2.52616974 -0.01664703 3.82752991 -0.02522278 C7.27011939 -0.04702262 10.71262013 -0.05594751 14.15527081 -0.06104922 C16.31482229 -0.06471155 18.47435119 -0.07096131 20.63389397 -0.07805061 C28.193114 -0.10249944 35.75226591 -0.11558608 43.31152344 -0.11914062 C50.31605155 -0.12276736 57.32013925 -0.15261218 64.32453305 -0.19454521 C70.37078932 -0.22945037 76.41690111 -0.24469257 82.46325725 -0.24538666 C86.05986806 -0.24617295 89.65602977 -0.25460693 93.25253487 -0.28338432 C129.54806546 -0.55573914 129.54806546 -0.55573914 145.11499023 12.30639648 C145.93483398 12.91225586 146.75467773 13.51811523 147.59936523 14.14233398 C155.02105154 20.52682811 161.09291684 30.71874237 163.11499023 40.30639648 C163.38738699 44.00452874 163.37246222 47.60881272 163.11499023 51.30639648 C160.36490889 50.66090796 157.61492267 50.01501882 154.86499023 49.36889648 C154.08768555 49.18649414 153.31038086 49.0040918 152.50952148 48.81616211 C151.75541992 48.63891602 151.00131836 48.46166992 150.22436523 48.27905273 C149.53310547 48.11671143 148.8418457 47.95437012 148.12963867 47.78710938 C146.77623891 47.46417625 145.4275555 47.12086018 144.08422852 46.75830078 C128.50501962 43.18315626 110.82213147 48.13256556 97.11499023 55.30639648 C92.61373388 58.19069667 88.16283198 61.18217836 84.43920898 65.04467773 C83.11499023 66.30639648 83.11499023 66.30639648 81.11499023 66.30639648 C80.86104492 66.87745117 80.60709961 67.44850586 80.34545898 68.03686523 C78.97190106 70.57031652 77.3295207 72.45529012 75.42749023 74.61889648 C68.41955705 83.23228345 64.26830214 93.73352715 61.11499023 104.30639648 C55.50499023 104.30639648 49.89499023 104.30639648 44.11499023 104.30639648 C43.61999023 101.80045898 43.61999023 101.80045898 43.11499023 99.24389648 C39.61610549 85.49133561 32.13059432 75.08529501 22.11499023 65.30639648 C21.45885742 64.62963867 20.80272461 63.95288086 20.12670898 63.25561523 C6.7471896 50.3344948 -13.51193329 45.73762702 -31.52954102 46.01342773 C-40.59776306 46.41605107 -49.35686253 49.3937062 -57.88500977 52.30639648 C-58.33715343 38.05482811 -52.28392947 26.42018885 -43.27050781 15.76098633 C-40.94729449 13.32191937 -38.28656283 11.5084035 -35.51000977 9.61889648 C-34.42977539 8.8725293 -33.34954102 8.12616211 -32.23657227 7.35717773 C-21.82525991 0.98661948 -11.95743522 0.00675371 0 0 Z " fill="#A97962" transform="translate(202.885009765625,115.693603515625)"/>
<path d="M0 0 C1.65 0.33 3.3 0.66 5 1 C5 1.99 5 2.98 5 4 C3.2421875 5.359375 3.2421875 5.359375 0.875 6.75 C-7.12068088 11.83359617 -12.2507005 18.7521015 -15.25 27.75 C-17.81865943 39.73707733 -15.22405831 50.27031299 -8.796875 60.515625 C-6.90466775 63.13180719 -4.84516033 65.40734807 -2.625 67.75 C4.15660479 75.00207145 8.96262747 83.55186431 12 93 C10.39898437 93.00616333 10.39898437 93.00616333 8.765625 93.01245117 C4.72447381 93.03457489 0.68425129 93.08919412 -3.35644531 93.15258789 C-5.09007726 93.1754831 -6.82384267 93.19009515 -8.55761719 93.19555664 C-29.34641661 93.27384586 -47.40253341 98.52221799 -63 113 C-73.69773244 123.95384758 -81.9848529 140.22330225 -82.07421875 155.68359375 C-82.1745076 168.77827125 -82.1745076 168.77827125 -84.953125 172.890625 C-87.21088881 174.85706445 -89.45767533 176.43000301 -92 178 C-93.01636426 178.98336346 -94.01936037 179.9810074 -95 181 C-95.00364563 180.06864731 -95.00729126 179.13729462 -95.01104736 178.17771912 C-95.04822339 169.33778642 -95.10623855 160.49819482 -95.18390274 151.65852261 C-95.22316765 147.1155155 -95.25545778 142.57269614 -95.27099609 138.02954102 C-95.28630257 133.63316868 -95.3209902 129.23731327 -95.36830902 124.84117317 C-95.38298026 123.17617385 -95.39103268 121.51110066 -95.39188385 119.84603691 C-95.40608034 105.98121577 -97.14659692 93.14586454 -103.75 80.6875 C-104.09216553 80.02363281 -104.43433105 79.35976562 -104.78686523 78.67578125 C-108.31568014 72.04544682 -112.76910281 66.42172411 -117.91796875 60.96875 C-125.21138337 53.13105071 -127.66859873 45.60000238 -127.53662109 34.90234375 C-127.11699623 26.18737613 -123.99005777 20.60540167 -117.8125 14.625 C-111.16463697 9.1878405 -104.22638601 6.24417725 -95.56640625 6.69140625 C-82.58550196 8.25227602 -75.14488161 14.57555789 -66.23828125 23.8125 C-65.7525766 24.31604004 -65.26687195 24.81958008 -64.76644897 25.33837891 C-62.76807841 27.41940513 -60.77529866 29.50473871 -58.80541992 31.61279297 C-57.34052154 33.1745579 -55.85428685 34.71319699 -54.36328125 36.25 C-53.50001221 37.16265625 -52.63674316 38.0753125 -51.74731445 39.015625 C-48.26481692 41.53102 -46.20626675 41.47740893 -42 41 C-39.64161975 39.48319943 -39.13779509 38.53759493 -38.4453125 35.8359375 C-38.33960938 35.02382813 -38.23390625 34.21171875 -38.125 33.375 C-36.56710136 24.67356615 -32.07827732 17.34862309 -25 12 C-19.05642212 8.52390748 -13.72091826 6.7208385 -6.87890625 6.3046875 C-3.96720641 5.83251996 -2.68501568 4.31689656 -1 2 C-0.67 1.34 -0.34 0.68 0 0 Z " fill="#2A4C65" transform="translate(213,8)"/>
<path d="M0 0 C2.09765625 1.06640625 2.09765625 1.06640625 4 3 C4.66114341 5.50522953 5.09951588 7.76531236 5.4375 10.3125 C8.53776819 29.26144207 16.98863401 46.52782281 32.64697266 58.23095703 C39.5992907 63.17081308 46.80055435 67.49847421 55 70 C55.97066406 70.29648437 56.94132812 70.59296875 57.94140625 70.8984375 C70.43241969 74.23959202 86.5121029 75.06423953 98.64453125 69.8671875 C101 69 101 69 104 70 C99.66918195 81.07770341 95.32748653 91.51352191 88 101 C87.58878906 101.53318848 87.17757812 102.06637695 86.75390625 102.61572266 C73.80582787 119.18983931 57.64546431 129.83992189 38 137 C37.17757812 137.33 36.35515625 137.66 35.5078125 138 C33.35034559 138.82189216 31.24183867 139.44917022 29 140 C28.06414062 140.23589844 27.12828125 140.47179687 26.1640625 140.71484375 C14.3731984 142.70910101 5.35955853 136.45000855 -3.953125 129.93359375 C-6.38906098 128.03770018 -8.69730929 126.05483164 -11 124 C-11.804375 123.33742188 -12.60875 122.67484375 -13.4375 121.9921875 C-30.96930177 107.14494287 -42.72786205 86.52581829 -47 64 C-46.23816406 63.45472656 -45.47632813 62.90945313 -44.69140625 62.34765625 C-26.30469048 48.91915597 -15.15931218 33.17950049 -11.4375 10.3125 C-11.34686279 9.62889404 -11.25622559 8.94528809 -11.1628418 8.2409668 C-10.69623644 5.13794353 -10.33139789 3.3368418 -8.09765625 1.06640625 C-5.19709624 -0.40818012 -3.2117948 -0.40147435 0 0 Z " fill="#A87962" transform="translate(259,234)"/>
<path d="M0 0 C0.68818817 0.31892212 1.37637634 0.63784424 2.0854187 0.96643066 C5.22069914 4.29656356 4.52330207 8.02587523 4.45410156 12.4284668 C4.45468567 13.39450836 4.45526978 14.36054993 4.45587158 15.35586548 C4.45308133 18.55401343 4.42194434 21.7512333 4.390625 24.94921875 C4.38316597 27.16453034 4.37747145 29.37984852 4.37347412 31.59516907 C4.35819126 37.42984184 4.31888625 43.26411721 4.2746582 49.09863281 C4.23376287 55.05072656 4.21547536 61.00288443 4.1953125 66.95507812 C4.15239485 78.63689349 4.0841112 90.31841372 4 102 C1.7720654 103.1419271 -0.45866732 104.27769233 -2.69140625 105.41015625 C-3.31776978 105.73197876 -3.9441333 106.05380127 -4.58947754 106.38537598 C-17.45977557 112.88999176 -32.1515082 112.65417318 -45.7265625 108.24609375 C-61.42660953 102.2695842 -73.02237451 91.53981372 -80.23828125 76.40234375 C-81.27633909 73.96007675 -82.17226236 71.52064828 -83 69 C-83.22558594 68.34257812 -83.45117188 67.68515625 -83.68359375 67.0078125 C-87.80895268 52.38412635 -85.22642024 37.26713011 -78.4609375 23.9765625 C-69.78375242 9.29525883 -55.97399154 -0.94154409 -39.52734375 -5.3671875 C-25.82546839 -7.82533125 -12.57520141 -6.15608211 0 0 Z " fill="#A87861" transform="translate(363,182)"/>
<path d="M0 0 C15.84 0 31.68 0 48 0 C48.02578125 3.50238281 48.0515625 7.00476563 48.078125 10.61328125 C48.11651871 13.99902445 48.1616877 17.38461397 48.20751953 20.77026367 C48.23577454 23.12630905 48.2569664 25.48245002 48.27099609 27.83862305 C48.29236245 31.22234196 48.3389817 34.60490597 48.390625 37.98828125 C48.39185364 39.04461258 48.39308228 40.10094391 48.39434814 41.18928528 C48.41406677 42.17007553 48.4337854 43.15086578 48.45410156 44.16137695 C48.46298401 45.02519485 48.47186646 45.88901276 48.48101807 46.77900696 C48.81900918 49.16196344 48.81900918 49.16196344 50.90032959 50.75675964 C53.04801905 52.02843266 54.81932347 52.66085342 57.25 53.1875 C58.4875 53.455625 59.725 53.72375 61 54 C61 58.88561936 59.28230747 60.45747196 56.1875 63.875 C55.16833954 65.03710764 54.1514803 66.20123673 53.13671875 67.3671875 C52.35240479 68.2658252 52.35240479 68.2658252 51.55224609 69.18261719 C49.10533754 72.04747835 46.80365102 75.01963846 44.5 78 C40.33672874 83.36295962 36.03718067 88.58662026 31.61523438 93.73828125 C29.31042043 96.42665494 27.08316607 99.13564666 25 102 C20.71103631 100.45756526 18.56477314 97.20563013 15.9375 93.6875 C14.95915376 92.40852985 13.97863011 91.13122277 12.99609375 89.85546875 C12.49835449 89.20884277 12.00061523 88.5622168 11.48779297 87.89599609 C9.23776386 85.02863048 6.87598202 82.26314744 4.5 79.5 C0.02354764 74.27908713 -4.26107015 68.92875017 -8.47265625 63.4921875 C-10.23639285 61.21927694 -11.96322042 59.03677958 -14 57 C-14 56.01 -14 55.02 -14 54 C-13.22914063 53.80664062 -12.45828125 53.61328125 -11.6640625 53.4140625 C-10.66117188 53.15367187 -9.65828125 52.89328125 -8.625 52.625 C-7.62726563 52.36976563 -6.62953125 52.11453125 -5.6015625 51.8515625 C-2.87458985 51.17595681 -2.87458985 51.17595681 -1 49 C-0.66947545 46.81875409 -0.66947545 46.81875409 -0.68115234 44.27490234 C-0.66128265 43.29403656 -0.64141296 42.31317078 -0.62094116 41.30258179 C-0.60938995 40.24108917 -0.59783875 39.17959656 -0.5859375 38.0859375 C-0.56657135 37.00116119 -0.5472052 35.91638489 -0.5272522 34.79873657 C-0.46733574 31.32423841 -0.42102261 27.84970733 -0.375 24.375 C-0.33683135 22.02342282 -0.29778029 19.67185979 -0.2578125 17.3203125 C-0.15995885 11.54694741 -0.08048498 5.77373822 0 0 Z " fill="#A97962" transform="translate(232,390)"/>
<path d="M0 0 C1.61230751 0.00424484 1.61230751 0.00424484 3.25718689 0.00857544 C6.65985677 0.01968976 10.06225464 0.04477803 13.46484375 0.0703125 C15.78450138 0.08035361 18.10416318 0.08947747 20.42382812 0.09765625 C26.08342472 0.11960038 31.74286479 0.15298985 37.40234375 0.1953125 C34.78191207 2.8632951 32.20990398 5.10762176 29.15234375 7.2578125 C16.46767134 17.04253513 10.44633605 32.31617655 8 47.73046875 C7.76600416 49.5479433 7.57773443 51.37124948 7.40234375 53.1953125 C6.5309375 52.85757813 5.65953125 52.51984375 4.76171875 52.171875 C-16.7105493 44.13139367 -35.10336539 44.85418547 -56.59765625 52.1953125 C-57.04979992 37.94374412 -50.99657595 26.30910487 -41.9831543 15.64990234 C-39.65994097 13.21083538 -36.99920932 11.39731952 -34.22265625 9.5078125 C-33.14242187 8.76144531 -32.0621875 8.01507813 -30.94921875 7.24609375 C-20.9615709 1.13477076 -11.48401471 -0.11561221 0 0 Z " fill="#966A53" transform="translate(201.59765625,115.8046875)"/>
<path d="M0 0 C22.92401548 6.32386634 47.35873287 26.19534817 60 46 C60 46.33 60 46.66 60 47 C27.99 47 -4.02 47 -37 47 C-33.30454629 42.07272838 -29.6129665 37.15706629 -25.8125 32.3125 C-25.34473145 31.7158252 -24.87696289 31.11915039 -24.39501953 30.50439453 C-20.70947597 25.83374076 -16.88327158 21.29862557 -13.00976562 16.78369141 C-8.40908776 11.38238906 -4.18154965 5.73027174 0 0 Z " fill="#FDCE63" transform="translate(309,450)"/>
<path d="M0 0 C1.26953125 1.40625 1.26953125 1.40625 2.8125 3.5 C6.24107192 8.0380263 9.78122965 12.46776087 13.375 16.875 C13.94025391 17.56932129 14.50550781 18.26364258 15.08789062 18.97900391 C18.32266802 22.94988858 21.56588509 26.91379221 24.8125 30.875 C27.73830198 34.4509802 30.65886332 38.03098816 33.5625 41.625 C34.22378906 42.44226563 34.88507813 43.25953125 35.56640625 44.1015625 C37 46 37 46 37 47 C4.99 47 -27.02 47 -60 47 C-56.5684397 41.28073284 -52.54179371 36.84646942 -48 32 C-46.86884766 30.77023437 -46.86884766 30.77023437 -45.71484375 29.515625 C-36.06886128 19.40264171 -14.90200942 0 0 0 Z " fill="#FDC04F" transform="translate(203,450)"/>
<path d="M0 0 C15.84 0 31.68 0 48 0 C48 15.51 48 31.02 48 47 C47.67 47 47.34 47 47 47 C47 36.44 47 25.88 47 15 C45.02 15.33 43.04 15.66 41 16 C38.91003127 16.07733849 36.81793605 16.10800958 34.7265625 16.09765625 C33.16542725 16.09390991 33.16542725 16.09390991 31.57275391 16.09008789 C30.26999512 16.08098389 28.96723633 16.07187988 27.625 16.0625 C23.45875 16.041875 19.2925 16.02125 15 16 C15 29.86 15 43.72 15 58 C10.05 58.99 5.1 59.98 0 61 C-4.80304035 62.54042748 -4.80304035 62.54042748 -7 65 C-8.17560179 63.73742767 -9.34022865 62.46462916 -10.5 61.1875 C-11.1496875 60.47980469 -11.799375 59.77210938 -12.46875 59.04296875 C-14 57 -14 57 -14 54 C-13.22914063 53.80664062 -12.45828125 53.61328125 -11.6640625 53.4140625 C-10.66117188 53.15367187 -9.65828125 52.89328125 -8.625 52.625 C-7.62726563 52.36976563 -6.62953125 52.11453125 -5.6015625 51.8515625 C-2.87458985 51.17595681 -2.87458985 51.17595681 -1 49 C-0.66947545 46.81875409 -0.66947545 46.81875409 -0.68115234 44.27490234 C-0.66128265 43.29403656 -0.64141296 42.31317078 -0.62094116 41.30258179 C-0.60938995 40.24108917 -0.59783875 39.17959656 -0.5859375 38.0859375 C-0.56657135 37.00116119 -0.5472052 35.91638489 -0.5272522 34.79873657 C-0.46733574 31.32423841 -0.42102261 27.84970733 -0.375 24.375 C-0.33683135 22.02342282 -0.29778029 19.67185979 -0.2578125 17.3203125 C-0.15995885 11.54694741 -0.08048498 5.77373822 0 0 Z " fill="#946851" transform="translate(232,390)"/>
<path d="M0 0 C6.78842304 2.266743 10.69725592 7.29893221 14.40234375 13.25390625 C18.21320973 21.26893042 18.72660071 31.62911162 16.01171875 40.07421875 C14.82536678 42.53139976 13.53469063 44.74703846 12 47 C11.13375 48.36125 11.13375 48.36125 10.25 49.75 C3.97709057 56.02290943 -3.16878623 60.23383352 -12.140625 60.32226562 C-12.87796875 60.31904297 -13.6153125 60.31582031 -14.375 60.3125 C-15.46941406 60.33666992 -15.46941406 60.33666992 -16.5859375 60.36132812 C-21.77778355 60.3659637 -25.35638524 59.32180738 -30 57 C-30.12226099 54.12686662 -30.06485746 52.6305383 -29 50 C-26.70478554 47.62456446 -24.22415761 45.57013502 -21.69921875 43.44140625 C-9.35285679 32.2742916 -3.20436346 15.9464205 0 0 Z " fill="#966952" transform="translate(409,243)"/>
<path d="M0 0 C0.23074219 0.94359375 0.46148437 1.8871875 0.69921875 2.859375 C5.3220765 21.2952544 12.31532048 35.70276782 27.05859375 48.0234375 C29.11257955 50.11461821 29.72015088 51.20004567 30.125 54.0625 C30.08375 55.031875 30.0425 56.00125 30 57 C24.72691593 59.5985316 20.5488704 60.55036908 14.6875 60.5 C13.94274414 60.49645508 13.19798828 60.49291016 12.43066406 60.48925781 C6.02957914 60.29730872 1.29230202 58.67046753 -4 55 C-4.9075 54.4225 -5.815 53.845 -6.75 53.25 C-12.84902735 47.15097265 -17.20626648 40.02144264 -17.32910156 31.27685547 C-17.32362305 30.58736816 -17.31814453 29.89788086 -17.3125 29.1875 C-17.30831055 28.47480957 -17.30412109 27.76211914 -17.29980469 27.02783203 C-17.11120726 18.26206445 -14.40108318 11.3135865 -8.03515625 5.07421875 C-2.41182365 0 -2.41182365 0 0 0 Z " fill="#966953" transform="translate(103,243)"/>
<path d="M0 0 C8.15452676 2.03863169 13.03682254 9.68057714 17.375 16.5 C24.86991959 29.299475 27.19601951 44.07204437 24.25 58.75 C20.65375172 72.26090499 13.97490448 84.12185008 3 93 C2.01 93 1.02 93 0 93 C-0.08783475 89.0001407 -0.14067102 85.00053296 -0.1875 81 C-0.21263672 79.87464844 -0.23777344 78.74929688 -0.26367188 77.58984375 C-0.32249771 70.88369865 0.3540837 66.13961974 3 60 C3.45945266 57.31607627 3.45945266 57.31607627 3.375 54.875 C3.38660156 53.69550781 3.38660156 53.69550781 3.3984375 52.4921875 C3.12006459 49.85215396 3.12006459 49.85215396 1.48828125 47.25 C-0.43576364 43.04841116 -0.33785405 39.67417385 -0.1875 35.125 C-0.16719727 33.949375 -0.16719727 33.949375 -0.14648438 32.75 C-0.11141789 30.83303218 -0.05762072 28.91642249 0 27 C1.12341797 27.50273437 1.12341797 27.50273437 2.26953125 28.015625 C5.86420864 29.3115602 8.31262283 28.83487785 12 28 C14.30831658 26.0757881 14.30831658 26.0757881 14.5625 22.75 C13.87264193 18.15094617 12.60030045 17.0191579 9.0234375 14.2890625 C6.11596164 12.43680954 3.2347045 11.1882588 0 10 C0 6.7 0 3.4 0 0 Z " fill="#A77861" transform="translate(209,188)"/>
<path d="M0 0 C2.59510829 2.52302195 3.93606965 4.86681178 5.5 8.125 C7.33669584 11.6453337 9.0763697 13.2442881 12.75 14.6875 C18.91322409 15.54350335 23.66858653 15.48065283 29.1796875 12.4765625 C32.00479261 10.18495364 33.37286433 7.3786695 34.89453125 4.12109375 C36.03841267 1.92629653 37.08397734 0.55707158 39 -1 C43.0561602 -1.70541917 44.54252512 -1.32120577 47.9375 1.0625 C50 4 50 4 50.1875 7.1875 C47.00858268 17.3934977 41.22775609 23.67570148 32.171875 29.09375 C25.02966965 32.44748121 15.46260988 32.3849479 8.0546875 30.0859375 C5.53552752 28.89184026 3.29728431 27.57623887 1 26 C0.35546875 25.5771875 -0.2890625 25.154375 -0.953125 24.71875 C-6.30545838 20.71613547 -9.61323126 15.18226941 -12 9 C-12.39825996 6.02381411 -12.09014179 4.90704479 -11 2 C-7.8090097 -1.92737267 -4.59733786 -1.3135251 0 0 Z " fill="#040302" transform="translate(237,291)"/>
<path d="M0 0 C4.67273855 2.99760586 6.86956782 5.94174532 9 11 C10.04105156 17.88385254 10.08204464 24.26424925 6.25 30.25 C3.43003308 34.0384404 0.83431462 35.67389962 -3.8125 36.5 C-8.46589754 35.77005529 -10.99627408 33.54985791 -14 30 C-17.32898713 24.51420431 -17.89597648 18.27183536 -17 12 C-14.40607065 3.88351139 -9.20641549 -2.07595643 0 0 Z " fill="#030201" transform="translate(316,226)"/>
<path d="M0 0 C4.85717589 2.64936867 7.34903491 6.83407697 9 12 C9.89597648 18.27183536 9.32898713 24.51420431 6 30 C3.05223206 33.48372575 0.4539706 35.70327131 -4.0625 36.625 C-9.22162274 35.52731431 -12.05413245 33.14499756 -15.375 29.125 C-18.43894243 23.17734706 -18.2444227 14.95287211 -16.26953125 8.6796875 C-12.61512181 1.78851542 -7.65873867 -1.49438803 0 0 Z " fill="#020201" transform="translate(204,226)"/>
<path d="M0 0 C4.57858801 3.00772285 7.60585773 5.21120045 8.8125 10.6875 C8 14 8 14 5.9375 16.5 C2.05771405 18.48116729 0.15590105 18.1874003 -4 17 C-6.75 15 -6.75 15 -9 13 C-13.06261478 11.64579507 -16.85438781 11.07228653 -20.90625 12.82421875 C-23.69384056 14.41290913 -26.33127383 16.22084922 -29 18 C-31.9375 18.4375 -31.9375 18.4375 -35 18 C-37.77491028 15.51718554 -38.81263417 13.71823567 -39.75 10.125 C-38.54272082 5.09467009 -35.18394159 2.80970386 -31 0 C-20.78574584 -5.73815596 -10.21565145 -5.72211119 0 0 Z " fill="#040302" transform="translate(328,200)"/>
<path d="M0 0 C2.76207906 1.87924631 3.98967929 3.2078879 6 6 C6.6875 9.625 6.6875 9.625 6 13 C3.9375 15.5 3.9375 15.5 1 17 C-4.40202123 17 -7.03749069 15.5222305 -11 12 C-15.0398713 10.65337623 -18.8469591 10.05158324 -22.87109375 11.82421875 C-24.61166838 12.83113182 -26.30748861 13.91423798 -28 15 C-30.75972316 16.75618746 -31.72217948 17.01133961 -35.0625 16.875 C-38 16 -38 16 -39.875 14.3125 C-41.45537115 11.0639593 -41.77246705 9.58143812 -41 6 C-30.35261333 -7.30201966 -14.03022584 -7.76053249 0 0 Z " fill="#030201" transform="translate(218,201)"/>
<path d="M0 0 C4.11421482 3.01364389 7.13666504 6.46087421 10.1875 10.5 C11.14421581 11.7447345 12.10258613 12.98819886 13.0625 14.23046875 C13.54589844 14.85614746 14.02929688 15.48182617 14.52734375 16.12646484 C17.64614702 20.09425269 20.93243613 23.92356788 24.19921875 27.76953125 C26 30 26 30 26 31 C13.79 31 1.58 31 -11 31 C-9.87462354 23.12236475 -9.87462354 23.12236475 -8.22265625 19.08203125 C-7.69961914 17.78942383 -7.69961914 17.78942383 -7.16601562 16.47070312 C-6.80185547 15.59349609 -6.43769531 14.71628906 -6.0625 13.8125 C-5.70220703 12.92369141 -5.34191406 12.03488281 -4.97070312 11.11914062 C-3.42981872 7.34212932 -1.86201684 3.63162975 0 0 Z " fill="#FDCE63" transform="translate(214,466)"/>
<path d="M0 0 C1.43791516 0.14168137 2.8753237 0.28851043 4.3125 0.4375 C5.11300781 0.51871094 5.91351563 0.59992188 6.73828125 0.68359375 C9 1 9 1 12 2 C12 11.57 12 21.14 12 31 C4.44520876 23.44520876 0.3110719 12.62126149 -0.125 1.9375 C-0.08375 1.298125 -0.0425 0.65875 0 0 Z " fill="#956952" transform="translate(118,239)"/>
<path d="M0 0 C-0.28366855 11.42410614 -4.45106671 21.7223445 -11 31 C-11.33 31 -11.66 31 -12 31 C-12 21.43 -12 11.86 -12 2 C-7.31489886 0.12595954 -4.88523811 -0.19157797 0 0 Z " fill="#956852" transform="translate(394,239)"/>
<path d="M0 0 C0.33 0 0.66 0 1 0 C1 8.58 1 17.16 1 26 C-2.63 25.67 -6.26 25.34 -10 25 C-9.54398041 18.66560282 -7.97240538 14.13835833 -5 8.5625 C-4.63132812 7.84384766 -4.26265625 7.12519531 -3.8828125 6.38476562 C-1.19970034 1.19970034 -1.19970034 1.19970034 0 0 Z " fill="#294B63" transform="translate(129,199)"/>
<path d="M0 0 C6.70963516 6.70963516 10.6263562 15.47208303 11 25 C7.37 25.33 3.74 25.66 0 26 C0 17.42 0 8.84 0 0 Z " fill="#355C7A" transform="translate(382,199)"/>
</svg>
