<?xml version="1.0" encoding="UTF-8"?>
<svg version="1.1" xmlns="http://www.w3.org/2000/svg" width="70" height="90">
<path d="M0 0 C5.07478656 2.83310453 7.93917924 6.59194309 9.578125 12.16015625 C9.85526603 14.60823532 9.78420023 16.68725345 9.578125 19.16015625 C10.47015625 19.11375 11.3621875 19.06734375 12.28125 19.01953125 C13.45171875 18.9834375 14.6221875 18.94734375 15.828125 18.91015625 C17.56835938 18.84054688 17.56835938 18.84054688 19.34375 18.76953125 C22.578125 19.16015625 22.578125 19.16015625 24.7479248 20.80444336 C27.08180877 23.80846476 27.08457518 25.46404013 27.09570312 29.2421875 C27.10831177 30.47026123 27.12092041 31.69833496 27.13391113 32.96362305 C27.12675127 34.2999733 27.11854727 35.6363183 27.109375 36.97265625 C27.11207077 38.3474149 27.11595389 39.72217169 27.12097168 41.09692383 C27.12686293 43.97528269 27.11831676 46.85314434 27.09960938 49.73144531 C27.07681889 53.41719641 27.08994413 57.10178247 27.11389923 60.78749084 C27.12836799 63.62545518 27.12374654 66.46314423 27.11338806 69.30111694 C27.1107237 70.65986266 27.11398041 72.01863353 27.12330627 73.37734985 C27.13348741 75.27760324 27.11521229 77.17794449 27.09570312 79.078125 C27.09252075 80.15860107 27.08933838 81.23907715 27.08605957 82.35229492 C26.44065205 85.92010646 25.53134498 87.08186205 22.578125 89.16015625 C19.77026367 89.66809082 19.77026367 89.66809082 16.49609375 89.67773438 C15.26802002 89.69034302 14.03994629 89.70295166 12.7746582 89.71594238 C11.43830795 89.70878252 10.10196295 89.70057852 8.765625 89.69140625 C7.39086635 89.69410202 6.01610956 89.69798514 4.64135742 89.70300293 C1.76299856 89.70889418 -1.11486309 89.70034801 -3.99316406 89.68164062 C-7.67891516 89.65885014 -11.36350122 89.67197538 -15.04920959 89.69593048 C-17.88717393 89.71039924 -20.72486298 89.70577779 -23.56283569 89.69541931 C-24.92158141 89.69275495 -26.28035228 89.69601166 -27.6390686 89.70533752 C-29.53932199 89.71551866 -31.43966324 89.69724354 -33.33984375 89.67773438 C-34.42031982 89.674552 -35.5007959 89.67136963 -36.61401367 89.66809082 C-40.18182521 89.0226833 -41.3435808 88.11337623 -43.421875 85.16015625 C-43.92980957 82.35229492 -43.92980957 82.35229492 -43.93945312 79.078125 C-43.95836609 77.2360144 -43.95836609 77.2360144 -43.97766113 75.35668945 C-43.97050127 74.0203392 -43.96229727 72.6839942 -43.953125 71.34765625 C-43.95582077 69.9728976 -43.95970389 68.59814081 -43.96472168 67.22338867 C-43.97061293 64.34502981 -43.96206676 61.46716816 -43.94335938 58.58886719 C-43.92056889 54.90311609 -43.93369413 51.21853003 -43.95764923 47.53282166 C-43.97211799 44.69485732 -43.96749654 41.85716827 -43.95713806 39.01919556 C-43.9544737 37.66044984 -43.95773041 36.30167897 -43.96705627 34.94296265 C-43.97723741 33.04270926 -43.95896229 31.14236801 -43.93945312 29.2421875 C-43.93627075 28.16171143 -43.93308838 27.08123535 -43.92980957 25.96801758 C-43.29778146 22.47416741 -42.22368207 21.2833822 -39.421875 19.16015625 C-36.1875 18.76953125 -36.1875 18.76953125 -32.671875 18.91015625 C-31.50140625 18.94625 -30.3309375 18.98234375 -29.125 19.01953125 C-28.23296875 19.0659375 -27.3409375 19.11234375 -26.421875 19.16015625 C-26.48375 18.12890625 -26.545625 17.09765625 -26.609375 16.03515625 C-26.34172032 10.5036263 -24.62234799 7.51453603 -20.984375 3.41015625 C-15.01926612 -1.82750033 -7.53103624 -2.61156902 0 0 Z M-16.421875 7.16015625 C-20.41097549 10.52456169 -20.41097549 10.52456169 -20.421875 19.16015625 C-12.501875 19.16015625 -4.581875 19.16015625 3.578125 19.16015625 C3.578125 12.96743767 3.45111876 11.6289952 -0.421875 7.16015625 C-6.68576496 3.43530409 -9.9751948 4.10646563 -16.421875 7.16015625 Z M-37.03897095 25.3503418 C-38.90511976 27.79258144 -38.80232639 29.35329455 -38.81005859 32.41015625 C-38.81951508 33.48136719 -38.82897156 34.55257812 -38.8387146 35.65625 C-38.83264191 36.81253906 -38.82656921 37.96882813 -38.8203125 39.16015625 C-38.82318268 40.34738281 -38.82605286 41.53460938 -38.82901001 42.7578125 C-38.83105277 45.2695361 -38.82550822 47.78127553 -38.81298828 50.29296875 C-38.7969386 54.14489197 -38.81283088 57.9957658 -38.83203125 61.84765625 C-38.83004886 64.28515857 -38.82620527 66.72266024 -38.8203125 69.16015625 C-38.82638519 70.31644531 -38.83245789 71.47273438 -38.8387146 72.6640625 C-38.82925812 73.73527344 -38.81980164 74.80648437 -38.81005859 75.91015625 C-38.80767181 76.85375 -38.80528503 77.79734375 -38.80282593 78.76953125 C-38.5880776 81.18014064 -38.5880776 81.18014064 -37.22573853 82.96401978 C-34.77852514 84.58675961 -33.09990567 84.54093352 -30.171875 84.54833984 C-29.10066406 84.55779633 -28.02945312 84.56725281 -26.92578125 84.57699585 C-25.76949219 84.57092316 -24.61320312 84.56485046 -23.421875 84.55859375 C-21.64103516 84.56289902 -21.64103516 84.56289902 -19.82421875 84.56729126 C-17.31249515 84.56933402 -14.80075572 84.56378947 -12.2890625 84.55126953 C-8.43713928 84.53521985 -4.58626545 84.55111213 -0.734375 84.5703125 C1.70312732 84.56833011 4.14062899 84.56448652 6.578125 84.55859375 C8.31255859 84.56770279 8.31255859 84.56770279 10.08203125 84.57699585 C11.15324219 84.56753937 12.22445312 84.55808289 13.328125 84.54833984 C14.27171875 84.54595306 15.2153125 84.54356628 16.1875 84.54110718 C18.59810939 84.32635885 18.59810939 84.32635885 20.38198853 82.96401978 C22.00472836 80.51680639 21.95890227 78.83818692 21.96630859 75.91015625 C21.97576508 74.83894531 21.98522156 73.76773438 21.9949646 72.6640625 C21.98889191 71.50777344 21.98281921 70.35148437 21.9765625 69.16015625 C21.98086777 67.37931641 21.98086777 67.37931641 21.98526001 65.5625 C21.98730277 63.0507764 21.98175822 60.53903697 21.96923828 58.02734375 C21.9531886 54.17542053 21.96908088 50.3245467 21.98828125 46.47265625 C21.98629886 44.03515393 21.98245527 41.59765226 21.9765625 39.16015625 C21.98263519 38.00386719 21.98870789 36.84757812 21.9949646 35.65625 C21.98550812 34.58503906 21.97605164 33.51382813 21.96630859 32.41015625 C21.96272842 30.99476562 21.96272842 30.99476562 21.95907593 29.55078125 C21.51021202 26.73397417 20.85184692 25.8336197 18.578125 24.16015625 C16.29482399 23.79869168 16.29482399 23.79869168 13.890625 23.97265625 C12.4675 24.03453125 11.044375 24.09640625 9.578125 24.16015625 C9.248125 28.78015625 8.918125 33.40015625 8.578125 38.16015625 C7.258125 38.16015625 5.938125 38.16015625 4.578125 38.16015625 C4.248125 33.54015625 3.918125 28.92015625 3.578125 24.16015625 C-4.341875 24.16015625 -12.261875 24.16015625 -20.421875 24.16015625 C-20.751875 28.78015625 -21.081875 33.40015625 -21.421875 38.16015625 C-22.741875 38.16015625 -24.061875 38.16015625 -25.421875 38.16015625 C-25.751875 33.54015625 -26.081875 28.92015625 -26.421875 24.16015625 C-27.845 24.09828125 -29.268125 24.03640625 -30.734375 23.97265625 C-31.53488281 23.93785156 -32.33539063 23.90304688 -33.16015625 23.8671875 C-35.44762084 23.97783526 -35.44762084 23.97783526 -37.03897095 25.3503418 Z " fill="#254CD9" transform="translate(43.421875,0.83984375)"/>
</svg>
